<svg xmlns="http://www.w3.org/2000/svg" viewBox="0 0 19.9 22.8"><defs><style>.cls-1{fill:#b1b3b7;}</style></defs><g id="Camada_2" data-name="Camada 2"><g id="layout"><g id="delete_icon"><path class="cls-1" d="M14.5,22.8H5.3a3.37,3.37,0,0,1-3.4-3.4V9.1a.58.58,0,0,1,.6-.6.53.53,0,0,1,.6.6V19.4a2.16,2.16,0,0,0,2.2,2.2h9.2a2.16,2.16,0,0,0,2.2-2.2V9.1a.58.58,0,0,1,.6-.6.53.53,0,0,1,.6.6V19.4A3.5,3.5,0,0,1,14.5,22.8Z"/><path class="cls-1" d="M17.5,2.8H13.2A3.42,3.42,0,0,0,9.9,0,3.42,3.42,0,0,0,6.6,2.8H2.3A2.26,2.26,0,0,0,0,5.1,2.26,2.26,0,0,0,2.3,7.4H17.6a2.26,2.26,0,0,0,2.3-2.3A2.35,2.35,0,0,0,17.5,2.8ZM9.9,1.1A2.14,2.14,0,0,1,12,2.8H7.7A2.25,2.25,0,0,1,9.9,1.1Zm7.6,5.2H2.2a1.2,1.2,0,1,1,0-2.4H17.5a1.22,1.22,0,0,1,1.2,1.2A1.16,1.16,0,0,1,17.5,6.3Z"/><path class="cls-1" d="M5.9,20a.58.58,0,0,1-.6-.6V9.9a.58.58,0,0,1,.6-.6.53.53,0,0,1,.6.6v9.5A.65.65,0,0,1,5.9,20Z"/><path class="cls-1" d="M13.9,20a.58.58,0,0,1-.6-.6V9.9a.58.58,0,0,1,.6-.6.53.53,0,0,1,.6.6v9.5C14.4,19.7,14.1,20,13.9,20Z"/><path class="cls-1" d="M9.9,20a.58.58,0,0,1-.6-.6V9.9a.58.58,0,0,1,.6-.6.53.53,0,0,1,.6.6v9.5C10.4,19.7,10.2,20,9.9,20Z"/></g></g></g></svg>