<svg xmlns="http://www.w3.org/2000/svg" viewBox="0 0 20.1 19.87"><defs><style>.cls-1{fill:#b1b3b7;}</style></defs><g id="Camada_2" data-name="Camada 2"><g id="layout"><g id="edit_icon"><path class="cls-1" d="M6.2,9.17h0c-.1.1-.1.1-.1.2h0v.1L4.7,15a.48.48,0,0,0,.2.6.76.76,0,0,0,.4.2h.2l5.1-1.4h.1a.52.52,0,0,0,.4-.2l8.3-8.6a2.84,2.84,0,0,0,.7-1.7,2.21,2.21,0,0,0-.7-1.7L17.9.67a2.37,2.37,0,0,0-3.3,0L6.2,9.17Zm9.2-7.7a1.22,1.22,0,0,1,1.6,0L18.5,3a1.14,1.14,0,0,1,.3.8,1.14,1.14,0,0,1-.3.8l-.4.5L15,1.87Zm-1.3,1.3L17.2,6l-6.5,6.8L7.6,9.57Zm-6.9,8.3,2.2,2.3-3.3.9.9-3.4Z"/><polygon class="cls-1" points="14 5.17 14.9 6.08 11 10.07 10.2 9.18 14 5.17"/><path class="cls-1" d="M.6,19.87H17a2.35,2.35,0,0,0,2.3-2.4V8.87H18.1v8.6a1.2,1.2,0,0,1-1.1,1.2H1.2V1.87H11.6V.57H.6a.65.65,0,0,0-.6.6v18.1A.65.65,0,0,0,.6,19.87Z"/></g></g></g></svg>