<svg xmlns="http://www.w3.org/2000/svg" viewBox="0 0 20.08 19.93"><defs><style>.cls-1{fill:#e4e6ea;}</style></defs><g id="Camada_2" data-name="Camada 2"><g id="layout"><g id="home_icon"><path class="cls-1" d="M.84,11.83h1.6v7.3a.77.77,0,0,0,.7.8h4.8a.77.77,0,0,0,.7-.8v-5.3h2.9v5.3a.77.77,0,0,0,.7.8h4.5a.77.77,0,0,0,.7-.8v-7.3h2a.63.63,0,0,0,.6-.5.79.79,0,0,0-.2-.81L10.74.22a.68.68,0,0,0-1,0L.24,10.52a1,1,0,0,0-.2.91C.34,11.62.54,11.83.84,11.83Zm9.5-10,7.4,8.5h-1a.77.77,0,0,0-.7.8v7.3h-3.1v-5.3a.77.77,0,0,0-.7-.8H7.94a.77.77,0,0,0-.7.8v5.3H3.84v-7.3a.77.77,0,0,0-.7-.8h-.6Z"/></g></g></g></svg>