<svg xmlns="http://www.w3.org/2000/svg" viewBox="0 0 1080 607.5"><defs><style>.cls-1{fill:#242526;}.cls-10,.cls-2{fill:#3a3b3c;}.cls-3{isolation:isolate;}.cls-3,.cls-6{font-size:12px;font-family:SegoeUI, Segoe UI;}.cls-3,.cls-5{fill:#b1b3b7;}.cls-11,.cls-4{fill:#18191a;}.cls-6,.cls-8{fill:#e4e6ea;}.cls-7{fill:#474849;}.cls-9{letter-spacing:-0.04em;}.cls-10,.cls-11{stroke:#e4e6ea;stroke-miterlimit:10;}.cls-12{letter-spacing:-0.01em;}.cls-13{letter-spacing:-0.05em;}.cls-14{letter-spacing:-0.02em;}.cls-15{letter-spacing:-0.06em;}.cls-16{letter-spacing:-0.03em;}.cls-17{letter-spacing:-0.07em;}.cls-18{letter-spacing:-0.07em;}</style></defs><g id="Camada_2" data-name="Camada 2"><g id="layout"><g id="layout_1.1"><rect id="main_windon" class="cls-1" width="1080" height="607.5"/><rect id="left_menu_frame" class="cls-2" width="240" height="607.5"/><g id="version_label"><rect id="version" class="cls-2" y="577.5" width="240" height="30"/><text class="cls-3" transform="translate(9.82 595.13)">v1.0.0</text></g><g id="bottom_menu_layout"><rect id="bottom_menu_frame" class="cls-4" x="240" y="577.5" width="840" height="30"/><text class="cls-3" transform="translate(1035.08 595.13)">© 2021</text><text class="cls-3" transform="translate(246.82 595.71)">Criado por: Tião Nazário</text></g><g id="top_menu_layout"><rect id="top_menu_frame" class="cls-4" x="240" width="840" height="30"/><text id="page_label" class="cls-3" transform="translate(1039.53 17.63)">| Início</text><text id="page_label-2" data-name="page_label" class="cls-3" transform="translate(246.82 17.63)">Sistema CRUD com Python PySide6</text></g><g id="toggle"><rect id="toggle_button" class="cls-2" width="240" height="50"/><g id="toggle_icon"><path class="cls-5" d="M33.5,18h-17A1.54,1.54,0,0,1,15,16.5h0A1.54,1.54,0,0,1,16.5,15h17A1.54,1.54,0,0,1,35,16.5h0A1.54,1.54,0,0,1,33.5,18Z"/><path class="cls-5" d="M33.5,35h-17A1.54,1.54,0,0,1,15,33.5h0A1.54,1.54,0,0,1,16.5,32h17A1.54,1.54,0,0,1,35,33.5h0A1.54,1.54,0,0,1,33.5,35Z"/><path class="cls-5" d="M33.5,26.5h-17A1.54,1.54,0,0,1,15,25h0a1.54,1.54,0,0,1,1.5-1.5h17A1.54,1.54,0,0,1,35,25h0A1.54,1.54,0,0,1,33.5,26.5Z"/></g><text class="cls-6" transform="translate(49.93 27.63)">Ocultar menu</text></g><g id="home"><rect id="home_button" class="cls-7" y="50" width="240" height="40"/><rect class="cls-8" y="50" width="2" height="40"/><g id="home_icon"><path class="cls-8" d="M15.7,71.9h1.6v7.3a.77.77,0,0,0,.7.8h4.8a.77.77,0,0,0,.7-.8V73.9h2.9v5.3a.77.77,0,0,0,.7.8h4.5a.77.77,0,0,0,.7-.8V71.9h2a.63.63,0,0,0,.6-.5.78.78,0,0,0-.2-.8L25.6,60.3a.67.67,0,0,0-1,0L15.1,70.6a1,1,0,0,0-.2.9C15.2,71.7,15.4,71.9,15.7,71.9Zm9.5-10,7.4,8.5h-1a.77.77,0,0,0-.7.8v7.3H27.8V73.2a.77.77,0,0,0-.7-.8H22.8a.77.77,0,0,0-.7.8v5.3H18.7V71.2a.77.77,0,0,0-.7-.8h-.6Z"/></g><text class="cls-6" transform="translate(49.93 72.63)">Início</text></g><g id="info"><rect id="info_button" class="cls-2" y="537.5" width="240" height="40"/><g id="info_icon"><path class="cls-5" d="M25,547.5a10,10,0,1,0,10,10A10,10,0,0,0,25,547.5Zm0,18.7a8.7,8.7,0,1,1,8.7-8.7A8.71,8.71,0,0,1,25,566.2Z"/><rect class="cls-5" x="24.4" y="556" width="1.3" height="6.3"/><rect class="cls-5" x="24.4" y="553" width="1.3" height="1.3"/></g><text class="cls-6" transform="translate(49.93 560.13)">Informações</text></g><g id="add"><rect id="add_button" class="cls-2" y="90" width="240" height="40"/><g id="add_icon"><path class="cls-5" d="M25,120a1.37,1.37,0,0,1-1.4-1.4V101.5a1.4,1.4,0,1,1,2.8,0v17.1A1.37,1.37,0,0,1,25,120Z"/><path class="cls-5" d="M33.6,111.4H16.4a1.4,1.4,0,1,1,0-2.8H33.5a1.37,1.37,0,0,1,1.4,1.4A1.29,1.29,0,0,1,33.6,111.4Z"/></g><text class="cls-6" transform="translate(49.93 112.63)">Adicionar</text></g><g id="edit"><rect id="edit_button" class="cls-2" y="130" width="240" height="40"/><g id="edit_icon"><path class="cls-5" d="M21.2,149.3h0c-.1.1-.1.1-.1.2h0v.1l-1.4,5.5a.48.48,0,0,0,.2.6.76.76,0,0,0,.4.2h.2l5.1-1.4h.1a.52.52,0,0,0,.4-.2l8.3-8.6a2.84,2.84,0,0,0,.7-1.7,2.19,2.19,0,0,0-.7-1.7l-1.5-1.5a2.35,2.35,0,0,0-3.3,0l-8.4,8.5Zm9.2-7.7a1.22,1.22,0,0,1,1.6,0l1.5,1.5a1.22,1.22,0,0,1,0,1.6l-.4.5L30,142Zm-1.3,1.3,3.1,3.2-6.5,6.8-3.1-3.2Zm-6.9,8.3,2.2,2.3-3.3.9L22,151Z"/><polygon class="cls-5" points="29 145.3 29.9 146.2 26 150.2 25.2 149.3 29 145.3"/><path class="cls-5" d="M15.6,160H32a2.35,2.35,0,0,0,2.3-2.4V149H33.1v8.6a1.2,1.2,0,0,1-1.1,1.2H16.2V142H26.6v-1.3h-11a.65.65,0,0,0-.6.6v18.1A.65.65,0,0,0,15.6,160Z"/></g><text class="cls-6" transform="translate(49.93 152.63)">Editar</text></g><g id="delete"><rect id="delete_button" class="cls-2" y="170" width="240" height="40"/><g id="delete_icon"><path class="cls-5" d="M29.6,201.4H20.4A3.37,3.37,0,0,1,17,198V187.7a.58.58,0,0,1,.6-.6.53.53,0,0,1,.6.6V198a2.16,2.16,0,0,0,2.2,2.2h9.2a2.16,2.16,0,0,0,2.2-2.2V187.7a.58.58,0,0,1,.6-.6.53.53,0,0,1,.6.6V198A3.5,3.5,0,0,1,29.6,201.4Z"/><path class="cls-5" d="M32.6,181.4H28.3a3.34,3.34,0,0,0-6.6,0H17.4a2.3,2.3,0,0,0,0,4.6H32.7a2.26,2.26,0,0,0,2.3-2.3A2.35,2.35,0,0,0,32.6,181.4ZM25,179.7a2.14,2.14,0,0,1,2.1,1.7H22.8A2.25,2.25,0,0,1,25,179.7Zm7.6,5.2H17.3a1.2,1.2,0,0,1,0-2.4H32.6a1.22,1.22,0,0,1,1.2,1.2A1.16,1.16,0,0,1,32.6,184.9Z"/><path class="cls-5" d="M21,198.6a.58.58,0,0,1-.6-.6v-9.5a.58.58,0,0,1,.6-.6.53.53,0,0,1,.6.6V198A.65.65,0,0,1,21,198.6Z"/><path class="cls-5" d="M29,198.6a.58.58,0,0,1-.6-.6v-9.5a.58.58,0,0,1,.6-.6.53.53,0,0,1,.6.6V198C29.5,198.3,29.2,198.6,29,198.6Z"/><path class="cls-5" d="M25,198.6a.58.58,0,0,1-.6-.6v-9.5a.58.58,0,0,1,.6-.6.53.53,0,0,1,.6.6V198C25.5,198.3,25.3,198.6,25,198.6Z"/></g><text class="cls-6" transform="translate(49.93 192.63)">Excluir</text></g><g id="search"><rect id="search_button" class="cls-2" y="210" width="240" height="40"/><g id="search_icon"><path class="cls-5" d="M22.8,220a7.8,7.8,0,1,0,0,15.6,7.22,7.22,0,0,0,4.4-1.4h0L33,240a.3.3,0,0,0,.4,0l1.6-1.6a.3.3,0,0,0,0-.4l-5.8-5.8a7.67,7.67,0,0,0,1.4-4.4A7.88,7.88,0,0,0,22.8,220Zm0,13.7a5.91,5.91,0,0,1-5.9-5.9,5.9,5.9,0,0,1,11.8,0A5.91,5.91,0,0,1,22.8,233.7Z"/></g><text class="cls-6" transform="translate(49.93 232.63)"><tspan class="cls-9">P</tspan><tspan x="6.28" y="0">esquisar</tspan></text></g><rect class="cls-10" x="320" y="99.99" width="50" height="20"/><rect class="cls-11" x="320" y="79.99" width="50" height="20"/><rect class="cls-10" x="320" y="119.99" width="50" height="20"/><rect class="cls-10" x="320" y="139.99" width="50" height="20"/><rect class="cls-10" x="320" y="159.99" width="50" height="20"/><rect class="cls-10" x="320" y="179.99" width="50" height="20"/><rect class="cls-10" x="320" y="199.99" width="50" height="20"/><rect class="cls-10" x="320" y="219.99" width="50" height="20"/><rect class="cls-10" x="320" y="239.99" width="50" height="20"/><rect class="cls-10" x="320" y="260.01" width="50" height="20"/><rect class="cls-10" x="320" y="280.01" width="50" height="20"/><rect class="cls-10" x="320" y="300.01" width="50" height="20"/><rect class="cls-10" x="320" y="320.01" width="50" height="20"/><rect class="cls-10" x="320" y="340.01" width="50" height="20"/><rect class="cls-10" x="320" y="360.01" width="50" height="20"/><rect class="cls-10" x="320" y="380.01" width="50" height="20"/><rect class="cls-10" x="320" y="400.01" width="50" height="20"/><rect class="cls-10" x="320" y="420.01" width="50" height="20"/><rect class="cls-10" x="320" y="440.01" width="50" height="20"/><rect class="cls-10" x="320" y="460.01" width="50" height="20"/><rect class="cls-10" x="320" y="480.01" width="50" height="20"/><rect class="cls-10" x="320" y="500.01" width="50" height="20"/><text class="cls-6" transform="translate(339.2 92.62)">ID</text><rect class="cls-10" x="370" y="99.99" width="250" height="20"/><rect class="cls-11" x="370" y="79.99" width="250" height="20"/><rect class="cls-10" x="370" y="119.99" width="250" height="20"/><rect class="cls-10" x="370" y="139.99" width="250" height="20"/><rect class="cls-10" x="370" y="159.99" width="250" height="20"/><rect class="cls-10" x="370" y="179.99" width="250" height="20"/><rect class="cls-10" x="370" y="199.99" width="250" height="20"/><rect class="cls-10" x="370" y="219.99" width="250" height="20"/><rect class="cls-10" x="370" y="239.99" width="250" height="20"/><rect class="cls-10" x="370" y="260.01" width="250" height="20"/><rect class="cls-10" x="370" y="280.01" width="250" height="20"/><rect class="cls-10" x="370" y="300.01" width="250" height="20"/><rect class="cls-10" x="370" y="320.01" width="250" height="20"/><rect class="cls-10" x="370" y="340.01" width="250" height="20"/><rect class="cls-10" x="370" y="360.01" width="250" height="20"/><rect class="cls-10" x="370" y="380.01" width="250" height="20"/><rect class="cls-10" x="370" y="400.01" width="250" height="20"/><rect class="cls-10" x="370" y="420.01" width="250" height="20"/><rect class="cls-10" x="370" y="440.01" width="250" height="20"/><rect class="cls-10" x="370" y="460.01" width="250" height="20"/><rect class="cls-10" x="370" y="480.01" width="250" height="20"/><rect class="cls-10" x="370" y="500.01" width="250" height="20"/><text class="cls-6" transform="translate(467.87 92.62)">P<tspan class="cls-12" x="6.72" y="0">R</tspan><tspan x="13.78" y="0">ODU</tspan><tspan class="cls-13" x="39.49" y="0">T</tspan><tspan x="45.22" y="0">O</tspan></text><rect class="cls-10" x="620" y="99.99" width="80" height="20"/><rect class="cls-11" x="620" y="79.99" width="80" height="20"/><rect class="cls-10" x="620" y="119.99" width="80" height="20"/><rect class="cls-10" x="620" y="139.99" width="80" height="20"/><rect class="cls-10" x="620" y="159.99" width="80" height="20"/><rect class="cls-10" x="620" y="179.99" width="80" height="20"/><rect class="cls-10" x="620" y="199.99" width="80" height="20"/><rect class="cls-10" x="620" y="219.99" width="80" height="20"/><rect class="cls-10" x="620" y="239.99" width="80" height="20"/><rect class="cls-10" x="620" y="260.01" width="80" height="20"/><rect class="cls-10" x="620" y="280.01" width="80" height="20"/><rect class="cls-10" x="620" y="300.01" width="80" height="20"/><rect class="cls-10" x="620" y="320.01" width="80" height="20"/><rect class="cls-10" x="620" y="340.01" width="80" height="20"/><rect class="cls-10" x="620" y="360.01" width="80" height="20"/><rect class="cls-10" x="620" y="380.01" width="80" height="20"/><rect class="cls-10" x="620" y="400.01" width="80" height="20"/><rect class="cls-10" x="620" y="420.01" width="80" height="20"/><rect class="cls-10" x="620" y="440.01" width="80" height="20"/><rect class="cls-10" x="620" y="460.01" width="80" height="20"/><rect class="cls-10" x="620" y="480.01" width="80" height="20"/><rect class="cls-10" x="620" y="500.01" width="80" height="20"/><text class="cls-6" transform="translate(623.23 92.62)">Q<tspan class="cls-14" x="9.05" y="0">U</tspan><tspan x="17" y="0">ANTI</tspan><tspan class="cls-14" x="43.2" y="0">D</tspan><tspan x="51.32" y="0">ADE</tspan></text><rect class="cls-10" x="800" y="99.99" width="100" height="20"/><rect class="cls-11" x="800" y="79.99" width="100" height="20"/><rect class="cls-10" x="800" y="119.99" width="100" height="20"/><rect class="cls-10" x="800" y="139.99" width="100" height="20"/><rect class="cls-10" x="800" y="159.99" width="100" height="20"/><rect class="cls-10" x="800" y="179.99" width="100" height="20"/><rect class="cls-10" x="800" y="199.99" width="100" height="20"/><rect class="cls-10" x="800" y="219.99" width="100" height="20"/><rect class="cls-10" x="800" y="239.99" width="100" height="20"/><rect class="cls-10" x="800" y="260.01" width="100" height="20"/><rect class="cls-10" x="800" y="280.01" width="100" height="20"/><rect class="cls-10" x="800" y="300.01" width="100" height="20"/><rect class="cls-10" x="800" y="320.01" width="100" height="20"/><rect class="cls-10" x="800" y="340.01" width="100" height="20"/><rect class="cls-10" x="800" y="360.01" width="100" height="20"/><rect class="cls-10" x="800" y="380.01" width="100" height="20"/><rect class="cls-10" x="800" y="400.01" width="100" height="20"/><rect class="cls-10" x="800" y="420.01" width="100" height="20"/><rect class="cls-10" x="800" y="440.01" width="100" height="20"/><rect class="cls-10" x="800" y="460.01" width="100" height="20"/><rect class="cls-10" x="800" y="480.01" width="100" height="20"/><rect class="cls-10" x="800" y="500.01" width="100" height="20"/><text class="cls-6" transform="translate(832.02 92.62)"><tspan class="cls-15">V</tspan><tspan x="6.75" y="0">A</tspan><tspan class="cls-16" x="14.49" y="0">L</tspan><tspan x="19.73" y="0">OR</tspan></text><rect class="cls-10" x="900" y="99.99" width="100" height="20"/><rect class="cls-11" x="900" y="79.99" width="100" height="20"/><rect class="cls-10" x="900" y="119.99" width="100" height="20"/><rect class="cls-10" x="900" y="139.99" width="100" height="20"/><rect class="cls-10" x="900" y="159.99" width="100" height="20"/><rect class="cls-10" x="900" y="179.99" width="100" height="20"/><rect class="cls-10" x="900" y="199.99" width="100" height="20"/><rect class="cls-10" x="900" y="219.99" width="100" height="20"/><rect class="cls-10" x="900" y="239.99" width="100" height="20"/><rect class="cls-10" x="900" y="260.01" width="100" height="20"/><rect class="cls-10" x="900" y="280.01" width="100" height="20"/><rect class="cls-10" x="900" y="300.01" width="100" height="20"/><rect class="cls-10" x="900" y="320.01" width="100" height="20"/><rect class="cls-10" x="900" y="340.01" width="100" height="20"/><rect class="cls-10" x="900" y="360.01" width="100" height="20"/><rect class="cls-10" x="900" y="380.01" width="100" height="20"/><rect class="cls-10" x="900" y="400.01" width="100" height="20"/><rect class="cls-10" x="900" y="420.01" width="100" height="20"/><rect class="cls-10" x="900" y="440.01" width="100" height="20"/><rect class="cls-10" x="900" y="460.01" width="100" height="20"/><rect class="cls-10" x="900" y="480.01" width="100" height="20"/><rect class="cls-10" x="900" y="500.01" width="100" height="20"/><text class="cls-6" transform="translate(935.9 92.62)"><tspan class="cls-14">D</tspan><tspan class="cls-17" x="8.12" y="0">A</tspan><tspan class="cls-18" x="15" y="0">T</tspan><tspan x="20.47" y="0">A</tspan></text><rect class="cls-10" x="700" y="99.99" width="100" height="20"/><rect class="cls-11" x="700" y="79.99" width="100" height="20"/><rect class="cls-10" x="700" y="119.99" width="100" height="20"/><rect class="cls-10" x="700" y="139.99" width="100" height="20"/><rect class="cls-10" x="700" y="159.99" width="100" height="20"/><rect class="cls-10" x="700" y="179.99" width="100" height="20"/><rect class="cls-10" x="700" y="199.99" width="100" height="20"/><rect class="cls-10" x="700" y="219.99" width="100" height="20"/><rect class="cls-10" x="700" y="239.99" width="100" height="20"/><rect class="cls-10" x="700" y="260.01" width="100" height="20"/><rect class="cls-10" x="700" y="280.01" width="100" height="20"/><rect class="cls-10" x="700" y="300.01" width="100" height="20"/><rect class="cls-10" x="700" y="320.01" width="100" height="20"/><rect class="cls-10" x="700" y="340.01" width="100" height="20"/><rect class="cls-10" x="700" y="360.01" width="100" height="20"/><rect class="cls-10" x="700" y="380.01" width="100" height="20"/><rect class="cls-10" x="700" y="400.01" width="100" height="20"/><rect class="cls-10" x="700" y="420.01" width="100" height="20"/><rect class="cls-10" x="700" y="440.01" width="100" height="20"/><rect class="cls-10" x="700" y="460.01" width="100" height="20"/><rect class="cls-10" x="700" y="480.01" width="100" height="20"/><rect class="cls-10" x="700" y="500.01" width="100" height="20"/><text class="cls-6" transform="translate(737.38 92.62)">TIPO</text></g></g></g></svg>